<svg width="353" height="299" fill="none" xmlns="http://www.w3.org/2000/svg"><path d="M253.824 51.302s-2.339-3.477 12.327-20.235 44.474-.997 44.474-.997-22.311-18.297-44.5-19.567c-22.19-1.27-37.934 27.224-40.511 35.102-2.58 7.868 3.824 6.155 11.363.11S233.476 1.81 233.476 1.81s-13.112 17.114-27.561 40.462c-14.449 23.348-22.554 26.75-28.63 32.727-6.068 5.973-18.972 10.786-25.915 8.732-6.942-2.054-23.625-21.793-50.323-23.735-26.698-1.942-49.141 8.237-49.141 8.237s24.12.629 36.164 7.074 9.425 17.831 16.624 19.344c7.199 1.513 15.772-12.955 3.719-12.19-12.053.763-45.592-.828-56.398 13.751-10.806 14.579-33.092 34.783-51.16 35.62 0 0 41.168 1.538 59.075-14.171 17.907-15.708 45.039-7.466 45.039-7.466l37.828-4.276s17.253-3.652 13.738-28.292c-3.515-24.64-1.273-44.655 3.956-45.538l15.986 2.49s-12.12 10.758-1.759 33.861c10.361 23.104 13.567 20.612 13.567 20.612m-16.116 10.445c14.582-6.02 40.051-36.25 68.396-45.81 37.5-12.646 87.352 6.242 106.945 70.766 18.042 59.42-18.382 131.278-100.085 158.907-94.041 31.796-159.291 11.216-192.218-60.849-25.432-55.685.052-96.316 27.787-107.409 25.646-10.26 61.725-4.273 89.175-15.605zm-60.055 28.548c27.049-10.427 49.66-2.074 61.437 19.565 7.276 13.373 24.143 59.269 29.208 74.63 5.065 15.362 8.58 41.335-24.233 50.19-29.91 8.064-51.654.593-71.28-20.632-19.477-21.058-39.137-57.81-31.664-85.718 7.472-27.908 21.373-32.187 36.532-38.035zm131.973-47.282c15.001-5.055 46.004-9.618 58.771 13.651 12.758 23.273 26.948 67.959 17.768 95.12-9.177 27.169-35.08 60.912-70.596 47.42-26.868-10.206-50.657-107.038-44.149-123.654 9.336-23.827 38.206-32.537 38.206-32.537zm-107.706 59.243c-3.919 2.081-7.107 6.876.408 15.233 8.489 9.43 16.352 9.377 14.569-.97-2.124-12.385-9.374-17.237-14.977-14.263zm95.056-33.609c-4.465.606-9.322 3.99-5.619 14.322 4.181 11.661 11.522 14.272 13.946 4.047 2.895-12.259-1.943-19.237-8.327-18.369zm43.377-5.623c-4.304-1.264-10.268-.192-11.813 10.595-1.745 12.177 3.618 17.507 10.621 9.304 8.401-9.85 7.345-18.093 1.192-19.899zm28.635 46.038c.126-4.189-2.627-9.214-14.232-7.603-13.102 1.808-17.142 8.066-6.703 12.041 12.515 4.766 20.758 1.554 20.935-4.438zm-5.555 41.941c2.468-3.507 2.949-9.128-7.846-13.388-12.185-4.818-19.152-1.444-12.5 7.016 7.977 10.135 16.82 11.39 20.346 6.372zm-24.332 35.583c3.821-2.225 6.789-7.145-1.091-15.21-8.903-9.103-16.751-8.739-14.511 1.523 2.678 12.306 10.138 16.88 15.602 13.687zM102.351 160.92c-3.225 2.932-5 8.318 4.542 14.649 10.777 7.149 18.365 5.253 13.832-4.345-5.422-11.49-13.758-14.495-18.374-10.304zm-3.548 51.146c.832 4.113 4.681 8.482 15.652 4.628 12.383-4.351 14.903-11.261 3.791-13.094-13.327-2.193-20.643 2.573-19.443 8.466zm29.242 35.981c3.407 2.752 9.338 3.962 15.369-5.366 6.812-10.538 4.167-17.406-5.776-12.447-11.901 5.936-14.46 13.886-9.593 17.813zm37.97 12.695c4.018 1.894 10.094 1.732 13.5-8.675 3.845-11.76-.517-17.822-8.866-10.774-10.004 8.445-10.399 16.732-4.634 19.449z" stroke="#000" stroke-miterlimit="10"/></svg>