<svg width="282" height="234" fill="none" xmlns="http://www.w3.org/2000/svg"><path opacity=".48" d="M126.771 75.706c0 34.985-14.086 68.25-42.257 99.794-28.171 31.544-52.03 51.044-71.578 58.5L0 213.353c19.547-10.324 36.22-25.522 50.018-45.596 13.798-20.073 21.847-40.72 24.147-61.941-6.899 3.441-16.385 5.162-28.459 5.162-11.498 0-21.56-5.162-30.183-15.485C7.474 85.169 3.45 71.69 3.45 55.059c0-17.206 6.036-30.684 18.11-40.434C33.633 4.875 48.58 0 66.404 0 84.8 0 99.462 6.309 110.385 18.927c10.924 12.044 16.386 30.97 16.386 56.779zm155.229 0c0 34.985-14.086 68.25-42.257 99.794-28.171 31.544-52.03 51.044-71.578 58.5l-12.936-20.647c19.548-10.324 36.221-25.522 50.019-45.596 13.798-20.073 21.847-40.72 24.147-61.941-6.9 3.441-16.386 5.162-28.459 5.162-11.499 0-21.56-5.162-30.184-15.485-8.049-10.324-12.073-23.802-12.073-40.434 0-17.206 6.037-30.684 18.11-40.434C188.862 4.875 203.81 0 221.633 0c18.398 0 33.058 6.309 43.982 18.927C276.538 30.97 282 49.897 282 75.706z" fill="#EBF0E4"/></svg>