<svg width="184" height="184" fill="none" xmlns="http://www.w3.org/2000/svg"><path d="M60.375 31.625l3.237 7.906c2.018 4.916 4.761 17.204 4.129 23-7.837 4.83-12.645 9.545-16.353 13.478-4.531-3.662-13.495-9.884-28.388-9.884h-5.75v5.75c0 11.005 3.973 19.947 5.393 23-1.437 3.03-5.393 11.655-5.393 23v5.75H23c14.778 0 23.851-6.244 28.394-9.884 6.802 7.009 16.502 14.398 28.75 19.947-.541 3.57-.967 8.555.534 14.374l1.081 4.313h4.491c7.096 0 13.208-3.525 18.147-6.647 4.042-2.565 5.997-4.359 7.009-5.215 22.868-.805 37.467-13.139 45.282-25.335 8.084-12.598 10.062-25.156 10.062-25.156l.178-1.438-.535-1.437s-13.167-36.162-48.874-37.916c-3.796-4.6-9.103-8.418-16.532-11.5C92.201 34.097 81.15 31.625 69 31.625h-8.625zm16.71 12.219c7.256.805 14.041 2.271 19.406 4.49 7.348 3.036 12.466 7.39 13.656 9.344l1.622 2.697H115c28.727 0 39.06 27.198 39.893 29.469-.402 2.11-2.069 10.131-7.906 19.228-6.675 10.396-17.48 20.303-37.737 20.303h-2.156l-1.616 1.437s-3.036 2.588-7.188 5.21c-2.184 1.374-4.042 1.622-6.29 2.518.23-2.627 0-6.468 0-6.468l1.26-5.032-4.675-1.621c-14.237-5.434-26.347-15.675-32.522-22.816l-3.957-4.675-4.312 4.313s-7.659 5.37-17.606 7.906c1.483-6.739 3.771-12.754 3.771-12.754l1.26-2.518-1.26-2.519s-2.49-6.6-3.95-13.656c10.597 2.34 17.785 8.81 17.785 8.81l4.313 4.312 3.956-4.675c5.146-5.813 19.003-20.303 39.352-23l-1.621-11.322c-5.503.725-10.304 2.317-14.91 4.14-.293-4.83-.54-8.987-1.8-13.121zm52.29 39.531A8.627 8.627 0 00120.75 92a8.627 8.627 0 008.625 8.625A8.627 8.627 0 00138 92a8.627 8.627 0 00-8.625-8.625z" fill="#000"/></svg>