<svg width="184" height="184" fill="none" xmlns="http://www.w3.org/2000/svg"><path d="M69 23c-14.846 0-28.054 8.268-37.197 20.844C22.661 56.424 17.25 73.399 17.25 92c0 18.595 5.41 35.581 14.553 48.156C40.946 152.737 54.153 161 69 161c47.322 0 72.548-27.065 78.706-55.522 4.324-3.128 7.544-7.751 7.544-13.478 0-5.727-3.214-10.35-7.55-13.478C141.22 49.346 111.05 23 69 23zm0 11.5c10.557 0 20.355 5.842 27.853 16.175C104.351 60.996 109.25 75.67 109.25 92c0 16.33-4.899 30.993-12.397 41.331C89.349 143.652 79.557 149.5 69 149.5c-10.557 0-20.355-5.842-27.853-16.175C33.649 123.004 28.75 108.33 28.75 92c0-16.33 4.899-30.992 12.397-41.331C48.651 40.342 58.443 34.5 69 34.5zm36.656 8.803c17.48 9.258 28.704 24.484 31.447 39.353l.535 2.875 2.702 1.26c1.995.92 3.41 2.852 3.41 5.209 0 2.358-1.414 4.29-3.415 5.21l-2.691 1.259-.541 2.875c-3.059 16.646-13.098 32.97-33.247 41.687.788-.943 1.599-1.863 2.341-2.875 9.142-12.581 14.553-29.555 14.553-48.156 0-18.596-5.411-35.581-14.553-48.156-.161-.202-.385-.34-.541-.54zM69 46c-4.111 0-7.975 1.483-11.5 3.956l11.678 27.485L81.04 50.128C77.395 47.467 73.266 46 69 46zM48.875 59.116c-4.514 7.072-7.613 16.56-8.447 27.134h19.947l-11.5-27.134zm40.612.54L77.797 86.25h19.769c-.805-10.333-3.732-19.561-8.09-26.594h.011zM40.423 97.75c.804 10.333 3.731 19.562 8.084 26.594L60.203 97.75h-19.78zm37.196 0l11.5 27.134c4.514-7.072 7.613-16.56 8.447-27.134H77.619zm-8.803 8.803l-11.862 27.313c3.64 2.673 7.774 4.134 12.04 4.134 4.112 0 7.975-1.483 11.5-3.956l-11.678-27.491z" fill="#000"/></svg>