<svg width="184" height="184" fill="none" xmlns="http://www.w3.org/2000/svg"><path d="M131.531 18.147l-6.469 9.522s3.525 2.743 5.21 6.653c1.46 3.432 2.518 7.457-3.053 14.19l-5.032 5.038c-16.933-14.421-34.143-15.1-34.143-15.1h-3.232l-1.8 2.875S68.35 66.257 54.263 92c-7.043 12.868-14.012 25.967-18.854 36.3-2.432 5.163-4.34 9.66-5.577 13.294-.604 1.817-1.035 3.346-1.254 5.031-.23 1.685-.856 3.996 1.973 6.831 2.834 2.829 5.146 2.196 6.83 1.972 1.685-.224 3.215-.65 5.032-1.253 3.64-1.237 8.13-3.146 13.3-5.578C66.027 143.75 79.126 136.792 92 129.743c25.72-14.111 50.675-28.75 50.675-28.75l2.875-1.8v-3.415s-.765-17.003-15.094-33.96l1.972-2.156c.495-.495.943-.834 1.438-1.26l1.437-1.258c6.785-5.21 13.208-5.003 18.872-3.588a33.22 33.22 0 0110.959 5.025l7.188-8.982s-6.383-4.916-15.456-7.187a36.342 36.342 0 00-6.107-.897l11.678-11.684-8.268-8.263-12.035 12.04a21.359 21.359 0 00-1.259-3.955c-3.237-7.544-9.344-11.5-9.344-11.5v-.006zM90.919 50.669c3.778.362 14.582 1.932 27.496 14.916 12.938 13.029 14.531 23.747 14.91 27.49-.943.564-5.859 3.53-9.7 5.75a66.95 66.95 0 00-7.55-12.753l-9.16 7.009c4.043 5.388 5.704 9.096 6.647 11.5a1988.963 1988.963 0 01-27.134 15.094c-.558.287-1.052.603-1.616.897-1.058-3.146-2.783-6.941-5.928-11.322l-9.344 6.647c2.83 3.956 4.22 7.21 4.853 9.344.11.362.11.448.173.718-8.596 4.606-16.905 9.028-23.713 12.219-3.548 1.668-6.066 2.588-8.625 3.594 1.012-2.559 1.932-5.077 3.594-8.625 4.646-9.902 11.523-22.816 18.503-35.575 3.37-6.153 5.934-10.758 8.987-16.175 1.84 1.616 4.22 3.795 6.831 7.188l8.982-7.01a59.366 59.366 0 00-10.063-10.419C85.082 60.6 89.89 52.446 90.925 50.67h-.006z" fill="#000"/></svg>